<?xml version="1.0" encoding="utf-8"?>
<!-- Generator: Adobe Illustrator 28.0.0, SVG Export Plug-In . SVG Version: 6.00 Build 0)  -->
<svg version="1.1" id="Слой_1" xmlns="http://www.w3.org/2000/svg" xmlns:xlink="http://www.w3.org/1999/xlink" x="0px" y="0px"
	 viewBox="0 0 991.1 1000" style="enable-background:new 0 0 991.1 1000;" xml:space="preserve">
<style type="text/css">
	.st0{fill:#25D366;}
</style>
<path class="st0" d="M990.8,477.5c-4.7-127.7-58.5-248.7-150.2-337.7S626.3,0.8,498.5,0H496C410-0.1,325.4,22.3,250.6,64.8
	c-74.8,42.6-137.2,103.8-181.2,177.8c-43.9,74-67.8,158.2-69.4,244.2c-1.5,86,19.4,171,60.7,246.5L16.9,995.7
	c-0.1,0.5,0,1.1,0.1,1.6c0.2,0.5,0.4,1,0.8,1.4c0.4,0.4,0.8,0.7,1.3,1c0.5,0.2,1,0.3,1.6,0.3h0.8l259.4-57.7
	c67,32.2,140.4,48.9,214.8,48.9c4.7,0,9.4,0,14.2,0c65.4-1.9,129.8-16.7,189.4-43.5c59.6-26.9,113.4-65.3,158.1-113.1
	c44.7-47.8,79.5-103.9,102.4-165.2C982.7,608.1,993.2,542.9,990.8,477.5L990.8,477.5z M507.3,905c-3.9,0-7.8,0-11.7,0
	c-65.7,0.1-130.5-15.6-188.8-45.8l-13.3-6.9l-175.9,41.6l32.5-178l-7.5-12.8c-36-61.4-55.4-131.1-56.3-202.3
	c-0.9-71.2,16.8-141.3,51.3-203.6c34.5-62.3,84.6-114.5,145.4-151.5c60.8-37,130.2-57.5,201.3-59.5c4,0,7.9,0,11.9,0
	C603.6,86.5,706.6,129,783,204.5c76.4,75.5,120,178,121.5,285.4c1.5,107.4-39.2,211.1-113.4,288.8c-74.2,77.7-176,123-283.3,126.4
	L507.3,905z"/>
<path class="st0" d="M323.3,256.3c-6.1,0.1-12.2,1.5-17.8,4c-5.6,2.5-10.6,6.1-14.8,10.6c-11.8,12.1-44.8,41.3-46.7,102.5
	c-1.9,61.2,40.9,121.8,46.8,130.3c6,8.5,81.8,140.7,206.6,194.4c73.4,31.6,105.5,37,126.4,37c8.6,0,15.1-0.9,21.9-1.3
	c22.9-1.4,74.5-27.8,85.7-56.6c11.3-28.8,12-53.9,9-58.9c-3-5-11.1-8.6-23.4-15.1c-12.3-6.4-72.4-38.6-83.7-43.1
	c-4.2-2-8.7-3.1-13.3-3.5c-3,0.2-5.9,1-8.5,2.6c-2.6,1.5-4.8,3.7-6.3,6.3c-10,12.5-33.1,39.7-40.9,47.5c-1.7,1.9-3.8,3.5-6.1,4.6
	c-2.3,1.1-4.9,1.7-7.5,1.7c-4.8-0.2-9.4-1.5-13.6-3.7c-36.4-15.5-69.7-37.6-98-65.3c-26.4-26.1-48.9-55.9-66.5-88.5
	c-6.8-12.7,0-19.2,6.2-25.1c6.2-5.9,12.9-14.1,19.3-21.2c5.3-6.1,9.7-12.8,13.1-20.1c1.8-3.4,2.6-7.1,2.6-10.9
	c-0.1-3.8-1.1-7.5-2.9-10.9c-3-6.3-25.1-68.6-35.5-93.6c-8.4-21.4-18.5-22.1-27.3-22.7c-7.2-0.5-15.5-0.8-23.8-1h-1.1"/>
</svg>
