<svg width="992" height="1000" viewBox="0 0 992 1000" fill="none" xmlns="http://www.w3.org/2000/svg">
<g clip-path="url(#clip0_108_2)">
<path d="M990.8 477.5C986.1 349.8 932.3 228.8 840.6 139.8C748.9 50.8 626.3 0.799967 498.5 -3.28513e-05H496C410 -0.100033 325.4 22.3 250.6 64.8C175.8 107.4 113.4 168.6 69.4 242.6C25.5 316.6 1.6 400.8 1.11759e-06 486.8C-1.5 572.8 19.4 657.8 60.7 733.3L16.9 995.7C16.8 996.2 16.9 996.8 17 997.3C17.2 997.8 17.4 998.3 17.8 998.7C18.2 999.1 18.6 999.4 19.1 999.7C19.6 999.9 20.1 1000 20.7 1000H21.5L280.9 942.3C347.9 974.5 421.3 991.2 495.7 991.2C500.4 991.2 505.1 991.2 509.9 991.2C575.3 989.3 639.7 974.5 699.3 947.7C758.9 920.8 812.7 882.4 857.4 834.6C902.1 786.8 936.9 730.7 959.8 669.4C982.7 608.1 993.2 542.9 990.8 477.5ZM507.3 905C503.4 905 499.5 905 495.6 905C429.9 905.1 365.1 889.4 306.8 859.2L293.5 852.3L117.6 893.9L150.1 715.9L142.6 703.1C106.6 641.7 87.2 572 86.3 500.8C85.4 429.6 103.1 359.5 137.6 297.2C172.1 234.9 222.2 182.7 283 145.7C343.8 108.7 413.2 88.2 484.3 86.2C488.3 86.2 492.2 86.2 496.2 86.2C603.6 86.5 706.6 129 783 204.5C859.4 280 903 382.5 904.5 489.9C906 597.3 865.3 701 791.1 778.7C716.9 856.4 615.1 901.7 507.8 905.1L507.3 905Z" fill="white"/>
<path d="M323.3 256.3C317.2 256.4 311.1 257.8 305.5 260.3C299.9 262.8 294.9 266.4 290.7 270.9C278.9 283 245.9 312.2 244 373.4C242.1 434.6 284.9 495.2 290.8 503.7C296.8 512.2 372.6 644.4 497.4 698.1C570.8 729.7 602.9 735.1 623.8 735.1C632.4 735.1 638.9 734.2 645.7 733.8C668.6 732.4 720.2 706 731.4 677.2C742.7 648.4 743.4 623.3 740.4 618.3C737.4 613.3 729.3 609.7 717 603.2C704.7 596.8 644.6 564.6 633.3 560.1C629.1 558.1 624.6 557 620 556.6C617 556.8 614.1 557.6 611.5 559.2C608.9 560.7 606.7 562.9 605.2 565.5C595.2 578 572.1 605.2 564.3 613C562.6 614.9 560.5 616.5 558.2 617.6C555.9 618.7 553.3 619.3 550.7 619.3C545.9 619.1 541.3 617.8 537.1 615.6C500.7 600.1 467.4 578 439.1 550.3C412.7 524.2 390.2 494.4 372.6 461.8C365.8 449.1 372.6 442.6 378.8 436.7C385 430.8 391.7 422.6 398.1 415.5C403.4 409.4 407.8 402.7 411.2 395.4C413 392 413.8 388.3 413.8 384.5C413.7 380.7 412.7 377 410.9 373.6C407.9 367.3 385.8 305 375.4 280C367 258.6 356.9 257.9 348.1 257.3C340.9 256.8 332.6 256.5 324.3 256.3H323.2" fill="white"/>
</g>
<defs>
<clipPath id="clip0_108_2">
<rect width="991.1" height="1000" fill="white"/>
</clipPath>
</defs>
</svg>
